<svg aria-hidden="true" style="width:0;height:0;position:absolute;overflow:hidden" xmlns="http://www.w3.org/2000/svg"><defs><symbol id="icon-video-camera" viewBox="0 0 32 32"><path d="M12 9a5 5 0 1 1 10.001.001A5 5 0 0 1 12 9zM0 9a5 5 0 1 1 10.001.001A5 5 0 0 1 0 9zm24 10v-3c0-1.1-.9-2-2-2H2c-1.1 0-2 .9-2 2v10c0 1.1.9 2 2 2h20c1.1 0 2-.9 2-2v-3l8 5V14l-8 5zm-4 5H4v-6h16v6z"/></symbol><symbol id="icon-search" viewBox="0 0 32 32"><path d="m31.008 27.231-7.58-6.447c-.784-.705-1.622-1.029-2.299-.998a11.954 11.954 0 0 0 2.87-7.787c0-6.627-5.373-12-12-12s-12 5.373-12 12 5.373 12 12 12c2.972 0 5.691-1.081 7.787-2.87-.031.677.293 1.515.998 2.299l6.447 7.58c1.104 1.226 2.907 1.33 4.007.23s.997-2.903-.23-4.007zM12 20a8 8 0 1 1 0-16 8 8 0 0 1 0 16z"/></symbol></defs><defs><symbol id="icon-camera-roll-icon" viewBox="0 0 29 32"><path d="M.471 0A.47.47 0 0 0 0 .469v31.06a.47.47 0 0 0 .469.469h28.237a.47.47 0 0 0 .471-.469V.469A.47.47 0 0 0 28.708 0H.471zM7.56 2.057h14.117v12.529H7.56V2.057zm0 15.029h14.117v12.531H7.56V17.086zm-5.497 10.06h3.828v2.536H2.063v-2.536zm21.354 0h3.828v2.536h-3.828v-2.536zm0-25.107h3.828v2.536h-3.828V2.039zm0 5.021h3.828v2.536h-3.828V7.06zm0 5.021h3.828v2.536h-3.828v-2.536zm0 5.021h3.828v2.536h-3.828v-2.536zm0 5.023h3.828v2.536h-3.828v-2.536zM2.063 2.039h3.828v2.536H2.063V2.039zm0 5.021h3.828v2.536H2.063V7.06zm0 5.021h3.828v2.536H2.063v-2.536zm0 5.021h3.828v2.536H2.063v-2.536zm0 5.023h3.828v2.536H2.063v-2.536z"/></symbol></defs><defs><symbol id="icon-moon" viewBox="0 0 32 32"><path d="M16.859 31.707c-.95 0-1.88-.08-2.786-.233l.098.014C6.221 30.148.241 23.315.241 15.086c0-.943.078-1.867.229-2.767l-.013.097C1.299 7.29 4.4 3.026 8.685.619l.083-.043A2.185 2.185 0 0 1 9.847.295c.492 0 .946.16 1.313.432l-.006-.004a2.185 2.185 0 0 1 .912 2.217l.002-.014-1.189-.091 1.125.201a13.89 13.89 0 0 0-.248 2.652c0 6.211 3.954 11.498 9.483 13.481l.1.031c1.413.507 3.043.799 4.742.799 1.063 0 2.099-.115 3.097-.332l-.096.017a2.231 2.231 0 0 1 2.427 3.185l.006-.013c-2.842 5.294-8.334 8.836-14.654 8.85h-.002zM9.755 2.642c-4.367 2.51-7.26 7.149-7.26 12.463 0 3.137 1.008 6.038 2.718 8.397l-.029-.042c2.629 3.643 6.863 5.987 11.645 5.987 5.411 0 10.121-3.002 12.556-7.431l.037-.074a16.45 16.45 0 0 1-3.332.332c-1.966 0-3.854-.336-5.61-.953l.118.036C14.066 19.018 9.476 12.881 9.476 5.672c0-1.071.101-2.119.295-3.134l-.017.104z"/></symbol><symbol id="icon-sun" viewBox="0 0 32 32"><path d="M16 26a2 2 0 0 1 2 2v2a2 2 0 1 1-4 0v-2a2 2 0 0 1 2-2zm0-20a2 2 0 0 1-2-2V2a2 2 0 1 1 4 0v2a2 2 0 0 1-2 2zm14 8a2 2 0 1 1 0 4h-2a2 2 0 1 1 0-4h2zM6 16a2 2 0 0 1-2 2H2a2 2 0 1 1 0-4h2a2 2 0 0 1 2 2zm19.899 7.071 1.414 1.414a2 2 0 1 1-2.828 2.828l-1.414-1.414a2 2 0 1 1 2.828-2.828zM6.101 8.929 4.687 7.515a2 2 0 1 1 2.828-2.828l1.414 1.414a2 2 0 1 1-2.828 2.828zm19.798 0a2 2 0 1 1-2.828-2.828l1.414-1.414a2 2 0 1 1 2.828 2.828l-1.414 1.414zM6.101 23.071a2 2 0 1 1 2.828 2.828l-1.414 1.414a2 2 0 1 1-2.828-2.828l1.414-1.414zM16 8a8 8 0 1 0 0 16 8 8 0 0 0 0-16zm0 13a5 5 0 1 1 .001-10.001A5 5 0 0 1 16 21z"/></symbol></defs></svg>