<svg aria-hidden="true" style="width:0;height:0;position:absolute;overflow:hidden" xmlns="http://www.w3.org/2000/svg"><defs><symbol id="icon-video-camera" viewBox="0 0 32 32"><path d="M12 9a5 5 0 1 1 10.001.001A5 5 0 0 1 12 9zM0 9a5 5 0 1 1 10.001.001A5 5 0 0 1 0 9zm24 10v-3c0-1.1-.9-2-2-2H2c-1.1 0-2 .9-2 2v10c0 1.1.9 2 2 2h20c1.1 0 2-.9 2-2v-3l8 5V14l-8 5zm-4 5H4v-6h16v6z"/></symbol><symbol id="icon-search" viewBox="0 0 32 32"><path d="m31.008 27.231-7.58-6.447c-.784-.705-1.622-1.029-2.299-.998a11.954 11.954 0 0 0 2.87-7.787c0-6.627-5.373-12-12-12s-12 5.373-12 12 5.373 12 12 12c2.972 0 5.691-1.081 7.787-2.87-.031.677.293 1.515.998 2.299l6.447 7.58c1.104 1.226 2.907 1.33 4.007.23s.997-2.903-.23-4.007zM12 20a8 8 0 1 1 0-16 8 8 0 0 1 0 16z"/></symbol></defs><defs><symbol id="icon-camera-roll-icon" viewBox="0 0 29 32"><path d="M.471 0A.47.47 0 0 0 0 .469v31.06a.47.47 0 0 0 .469.469h28.237a.47.47 0 0 0 .471-.469V.469A.47.47 0 0 0 28.708 0H.471zM7.56 2.057h14.117v12.529H7.56V2.057zm0 15.029h14.117v12.531H7.56V17.086zm-5.497 10.06h3.828v2.536H2.063v-2.536zm21.354 0h3.828v2.536h-3.828v-2.536zm0-25.107h3.828v2.536h-3.828V2.039zm0 5.021h3.828v2.536h-3.828V7.06zm0 5.021h3.828v2.536h-3.828v-2.536zm0 5.021h3.828v2.536h-3.828v-2.536zm0 5.023h3.828v2.536h-3.828v-2.536zM2.063 2.039h3.828v2.536H2.063V2.039zm0 5.021h3.828v2.536H2.063V7.06zm0 5.021h3.828v2.536H2.063v-2.536zm0 5.021h3.828v2.536H2.063v-2.536zm0 5.023h3.828v2.536H2.063v-2.536z"/></symbol></defs></svg>