<svg aria-hidden="true" style="position: absolute; width: 0; height: 0; overflow: hidden;" version="1.1" xmlns="http://www.w3.org/2000/svg" xmlns:xlink="http://www.w3.org/1999/xlink">
<defs>
<symbol id="icon-video-camera" viewBox="0 0 32 32">
<path d="M12 9c0-2.761 2.239-5 5-5s5 2.239 5 5c0 2.761-2.239 5-5 5s-5-2.239-5-5zM0 9c0-2.761 2.239-5 5-5s5 2.239 5 5c0 2.761-2.239 5-5 5s-5-2.239-5-5zM24 19v-3c0-1.1-0.9-2-2-2h-20c-1.1 0-2 0.9-2 2v10c0 1.1 0.9 2 2 2h20c1.1 0 2-0.9 2-2v-3l8 5v-14l-8 5zM20 24h-16v-6h16v6z"></path>
</symbol>
<symbol id="icon-search" viewBox="0 0 32 32">
<path d="M31.008 27.231l-7.58-6.447c-0.784-0.705-1.622-1.029-2.299-0.998 1.789-2.096 2.87-4.815 2.87-7.787 0-6.627-5.373-12-12-12s-12 5.373-12 12 5.373 12 12 12c2.972 0 5.691-1.081 7.787-2.87-0.031 0.677 0.293 1.515 0.998 2.299l6.447 7.58c1.104 1.226 2.907 1.33 4.007 0.23s0.997-2.903-0.23-4.007zM12 20c-4.418 0-8-3.582-8-8s3.582-8 8-8 8 3.582 8 8-3.582 8-8 8z"></path>
</symbol>
</defs>
<defs>
<symbol id="icon-camera-roll-icon" viewBox="0 0 29 32">
<path d="M0.471 0v0 0c-0.26 0-0.471 0.211-0.471 0.469v31.060c0 0.258 0.211 0.469 0.469 0.469h28.237c0.26 0 0.471-0.211 0.471-0.469v-31.060c0-0.258-0.211-0.469-0.469-0.469h-28.237zM7.56 2.057h14.117v12.529h-14.117v-12.529zM7.56 17.086h14.117v12.531h-14.117v-12.531zM2.063 27.146h3.828v2.536h-3.828v-2.536zM23.417 27.146h3.828v2.536h-3.828v-2.536zM23.417 2.039h3.828v2.536h-3.828v-2.536zM23.417 7.060h3.828v2.536h-3.828v-2.536zM23.417 12.081h3.828v2.536h-3.828v-2.536zM23.417 17.102h3.828v2.536h-3.828v-2.536zM23.417 22.125h3.828v2.536h-3.828v-2.536zM2.063 2.039h3.828v2.536h-3.828v-2.536zM2.063 7.060h3.828v2.536h-3.828v-2.536zM2.063 12.081h3.828v2.536h-3.828v-2.536zM2.063 17.102h3.828v2.536h-3.828v-2.536zM2.063 22.125h3.828v2.536h-3.828v-2.536z"></path>
</symbol>
</defs>
<defs>
<symbol id="icon-moon" viewBox="0 0 32 32">
<path d="M16.859 31.707c-0.95-0-1.88-0.080-2.786-0.233l0.098 0.014c-7.95-1.34-13.93-8.173-13.93-16.402 0-0.943 0.078-1.867 0.229-2.767l-0.013 0.097c0.842-5.126 3.943-9.39 8.228-11.797l0.083-0.043c0.311-0.177 0.683-0.281 1.079-0.281 0.492 0 0.946 0.16 1.313 0.432l-0.006-0.004c0.578 0.399 0.951 1.058 0.951 1.803 0 0.141-0.013 0.28-0.039 0.414l0.002-0.014-1.189-0.091 1.125 0.201c-0.158 0.797-0.248 1.714-0.248 2.652 0 6.211 3.954 11.498 9.483 13.481l0.1 0.031c1.413 0.507 3.043 0.799 4.742 0.799 1.063 0 2.099-0.115 3.097-0.332l-0.096 0.017c0.129-0.027 0.278-0.042 0.43-0.042 1.232 0 2.231 0.999 2.231 2.231 0 0.358-0.084 0.696-0.234 0.996l0.006-0.013c-2.842 5.294-8.334 8.836-14.654 8.85h-0.002zM9.755 2.642c-4.367 2.51-7.26 7.149-7.26 12.463 0 3.137 1.008 6.038 2.718 8.397l-0.029-0.042c2.629 3.643 6.863 5.987 11.645 5.987 5.411 0 10.121-3.002 12.556-7.431l0.037-0.074c-1.002 0.211-2.153 0.332-3.332 0.332-1.966 0-3.854-0.336-5.61-0.953l0.118 0.036c-6.532-2.339-11.122-8.476-11.122-15.685 0-1.071 0.101-2.119 0.295-3.134l-0.017 0.104z"></path>
</symbol>
<symbol id="icon-sun" viewBox="0 0 32 32">
<path d="M16 26c1.105 0 2 0.895 2 2v2c0 1.105-0.895 2-2 2s-2-0.895-2-2v-2c0-1.105 0.895-2 2-2zM16 6c-1.105 0-2-0.895-2-2v-2c0-1.105 0.895-2 2-2s2 0.895 2 2v2c0 1.105-0.895 2-2 2zM30 14c1.105 0 2 0.895 2 2s-0.895 2-2 2h-2c-1.105 0-2-0.895-2-2s0.895-2 2-2h2zM6 16c0 1.105-0.895 2-2 2h-2c-1.105 0-2-0.895-2-2s0.895-2 2-2h2c1.105 0 2 0.895 2 2zM25.899 23.071l1.414 1.414c0.781 0.781 0.781 2.047 0 2.828s-2.047 0.781-2.828 0l-1.414-1.414c-0.781-0.781-0.781-2.047 0-2.828s2.047-0.781 2.828 0zM6.101 8.929l-1.414-1.414c-0.781-0.781-0.781-2.047 0-2.828s2.047-0.781 2.828 0l1.414 1.414c0.781 0.781 0.781 2.047 0 2.828s-2.047 0.781-2.828 0zM25.899 8.929c-0.781 0.781-2.047 0.781-2.828 0s-0.781-2.047 0-2.828l1.414-1.414c0.781-0.781 2.047-0.781 2.828 0s0.781 2.047 0 2.828l-1.414 1.414zM6.101 23.071c0.781-0.781 2.047-0.781 2.828 0s0.781 2.047 0 2.828l-1.414 1.414c-0.781 0.781-2.047 0.781-2.828 0s-0.781-2.047 0-2.828l1.414-1.414z"></path>
<path d="M16 8c-4.418 0-8 3.582-8 8s3.582 8 8 8c4.418 0 8-3.582 8-8s-3.582-8-8-8zM16 21c-2.761 0-5-2.239-5-5s2.239-5 5-5 5 2.239 5 5-2.239 5-5 5z"></path>
</symbol>
</defs>
</svg>
