<svg aria-hidden="true" style="position: absolute; width: 0; height: 0; overflow: hidden;" version="1.1" xmlns="http://www.w3.org/2000/svg" xmlns:xlink="http://www.w3.org/1999/xlink">
<defs>
<symbol id="icon-video-camera" viewBox="0 0 32 32">
<path d="M12 9c0-2.761 2.239-5 5-5s5 2.239 5 5c0 2.761-2.239 5-5 5s-5-2.239-5-5zM0 9c0-2.761 2.239-5 5-5s5 2.239 5 5c0 2.761-2.239 5-5 5s-5-2.239-5-5zM24 19v-3c0-1.1-0.9-2-2-2h-20c-1.1 0-2 0.9-2 2v10c0 1.1 0.9 2 2 2h20c1.1 0 2-0.9 2-2v-3l8 5v-14l-8 5zM20 24h-16v-6h16v6z"></path>
</symbol>
<symbol id="icon-search" viewBox="0 0 32 32">
<path d="M31.008 27.231l-7.58-6.447c-0.784-0.705-1.622-1.029-2.299-0.998 1.789-2.096 2.87-4.815 2.87-7.787 0-6.627-5.373-12-12-12s-12 5.373-12 12 5.373 12 12 12c2.972 0 5.691-1.081 7.787-2.87-0.031 0.677 0.293 1.515 0.998 2.299l6.447 7.58c1.104 1.226 2.907 1.33 4.007 0.23s0.997-2.903-0.23-4.007zM12 20c-4.418 0-8-3.582-8-8s3.582-8 8-8 8 3.582 8 8-3.582 8-8 8z"></path>
</symbol>
</defs>
<defs>
<symbol id="icon-camera-roll-icon" viewBox="0 0 29 32">
<path d="M0.471 0v0 0c-0.26 0-0.471 0.211-0.471 0.469v31.060c0 0.258 0.211 0.469 0.469 0.469h28.237c0.26 0 0.471-0.211 0.471-0.469v-31.060c0-0.258-0.211-0.469-0.469-0.469h-28.237zM7.56 2.057h14.117v12.529h-14.117v-12.529zM7.56 17.086h14.117v12.531h-14.117v-12.531zM2.063 27.146h3.828v2.536h-3.828v-2.536zM23.417 27.146h3.828v2.536h-3.828v-2.536zM23.417 2.039h3.828v2.536h-3.828v-2.536zM23.417 7.060h3.828v2.536h-3.828v-2.536zM23.417 12.081h3.828v2.536h-3.828v-2.536zM23.417 17.102h3.828v2.536h-3.828v-2.536zM23.417 22.125h3.828v2.536h-3.828v-2.536zM2.063 2.039h3.828v2.536h-3.828v-2.536zM2.063 7.060h3.828v2.536h-3.828v-2.536zM2.063 12.081h3.828v2.536h-3.828v-2.536zM2.063 17.102h3.828v2.536h-3.828v-2.536zM2.063 22.125h3.828v2.536h-3.828v-2.536z"></path>
</symbol>
</defs>
</svg>
